<svg width="2209" height="470" viewBox="0 0 2209 470" fill="none" xmlns="http://www.w3.org/2000/svg">
<g clip-path="url(#clip0_140_413)">
<path fill-rule="evenodd" clip-rule="evenodd" d="M358.568 575.721C309.69 472.577 297.154 348.13 349.056 246.475C400.815 145.099 513.25 99.1442 620.848 62.0151C730.672 24.1178 859.677 -28.8082 955.208 37.3086C1048.06 101.57 1023.81 240.216 1039.83 351.992C1051.69 434.75 1062.76 514.388 1034.88 593.206C1001.99 686.199 964.455 792.387 871.945 826.616C777.961 861.39 681.198 801.381 591.164 757.379C499.281 712.475 402.362 668.138 358.568 575.721Z" fill="#7E1AFF"/>
<path fill-rule="evenodd" clip-rule="evenodd" d="M1376.06 421.733C1425.26 318.984 1509.64 227.605 1612.03 196.576C1714.14 165.632 1808.34 214.05 1893.48 264.931C1980.37 316.864 2088.6 372.286 2091.64 483.209C2094.58 591.019 1980 666.003 1906.78 751.42C1852.56 814.662 1800.21 875.277 1727.48 908.012C1641.67 946.634 1543.7 990.757 1468.81 948.541C1392.73 905.653 1384.57 797.919 1368.3 705.529C1351.7 611.242 1331.97 513.797 1376.06 421.733Z" fill="#7E1AFF"/>
</g>
<defs>
<clipPath id="clip0_140_413">
<rect width="2209" height="470" fill="white"/>
</clipPath>
</defs>
</svg>
